<svg width="19" height="18" viewBox="0 0 19 18" fill="none" xmlns="http://www.w3.org/2000/svg">
<path d="M8.96 6.3H16.16C15.755 5.265 15.1363 4.37625 14.3038 3.63375C13.4713 2.89125 12.515 2.37 11.435 2.07L8.96 6.3ZM6.89 8.1L10.49 1.89C10.325 1.86 10.16 1.8375 9.995 1.8225C9.83 1.8075 9.665 1.8 9.5 1.8C8.51 1.8 7.5875 1.9875 6.7325 2.3625C5.8775 2.7375 5.12 3.24 4.46 3.87L6.89 8.1ZM2.525 10.8H7.43L3.83 4.59C3.35 5.205 2.975 5.88375 2.705 6.62625C2.435 7.36875 2.3 8.16 2.3 9C2.3 9.315 2.31875 9.61875 2.35625 9.91125C2.39375 10.2037 2.45 10.5 2.525 10.8ZM7.565 15.93L9.995 11.7H2.84C3.245 12.735 3.86375 13.6237 4.69625 14.3663C5.52875 15.1088 6.485 15.63 7.565 15.93ZM9.5 16.2C10.49 16.2 11.4125 16.0125 12.2675 15.6375C13.1225 15.2625 13.88 14.76 14.54 14.13L12.11 9.9L8.51 16.11C8.675 16.14 8.83625 16.1625 8.99375 16.1775C9.15125 16.1925 9.32 16.2 9.5 16.2ZM15.17 13.41C15.65 12.795 16.025 12.1162 16.295 11.3737C16.565 10.6312 16.7 9.84 16.7 9C16.7 8.685 16.6812 8.38125 16.6437 8.08875C16.6062 7.79625 16.55 7.5 16.475 7.2H11.57L15.17 13.41ZM9.5 18C8.27 18 7.1075 17.7638 6.0125 17.2912C4.9175 16.8187 3.96125 16.1737 3.14375 15.3562C2.32625 14.5387 1.68125 13.5825 1.20875 12.4875C0.73625 11.3925 0.5 10.23 0.5 9C0.5 7.755 0.73625 6.58875 1.20875 5.50125C1.68125 4.41375 2.32625 3.46125 3.14375 2.64375C3.96125 1.82625 4.9175 1.18125 6.0125 0.70875C7.1075 0.23625 8.27 0 9.5 0C10.745 0 11.9112 0.23625 12.9987 0.70875C14.0862 1.18125 15.0387 1.82625 15.8562 2.64375C16.6737 3.46125 17.3187 4.41375 17.7912 5.50125C18.2638 6.58875 18.5 7.755 18.5 9C18.5 10.23 18.2638 11.3925 17.7912 12.4875C17.3187 13.5825 16.6737 14.5387 15.8562 15.3562C15.0387 16.1737 14.0862 16.8187 12.9987 17.2912C11.9112 17.7638 10.745 18 9.5 18Z" fill="#6D6C6D"/>
</svg>
