<svg width="19" height="18" viewBox="0 0 19 18" fill="none" xmlns="http://www.w3.org/2000/svg">
<path d="M3.965 13.59C4.73 13.005 5.585 12.5437 6.53 12.2062C7.475 11.8687 8.465 11.7 9.5 11.7C10.535 11.7 11.525 11.8687 12.47 12.2062C13.415 12.5437 14.27 13.005 15.035 13.59C15.56 12.975 15.9688 12.2775 16.2613 11.4975C16.5538 10.7175 16.7 9.885 16.7 9C16.7 7.005 15.9987 5.30625 14.5962 3.90375C13.1938 2.50125 11.495 1.8 9.5 1.8C7.505 1.8 5.80625 2.50125 4.40375 3.90375C3.00125 5.30625 2.3 7.005 2.3 9C2.3 9.885 2.44625 10.7175 2.73875 11.4975C3.03125 12.2775 3.44 12.975 3.965 13.59ZM9.5 9.9C8.615 9.9 7.86875 9.59625 7.26125 8.98875C6.65375 8.38125 6.35 7.635 6.35 6.75C6.35 5.865 6.65375 5.11875 7.26125 4.51125C7.86875 3.90375 8.615 3.6 9.5 3.6C10.385 3.6 11.1312 3.90375 11.7387 4.51125C12.3462 5.11875 12.65 5.865 12.65 6.75C12.65 7.635 12.3462 8.38125 11.7387 8.98875C11.1312 9.59625 10.385 9.9 9.5 9.9ZM9.5 18C8.255 18 7.085 17.7638 5.99 17.2912C4.895 16.8187 3.9425 16.1775 3.1325 15.3675C2.3225 14.5575 1.68125 13.605 1.20875 12.51C0.73625 11.415 0.5 10.245 0.5 9C0.5 7.755 0.73625 6.585 1.20875 5.49C1.68125 4.395 2.3225 3.4425 3.1325 2.6325C3.9425 1.8225 4.895 1.18125 5.99 0.70875C7.085 0.23625 8.255 0 9.5 0C10.745 0 11.915 0.23625 13.01 0.70875C14.105 1.18125 15.0575 1.8225 15.8675 2.6325C16.6775 3.4425 17.3187 4.395 17.7912 5.49C18.2638 6.585 18.5 7.755 18.5 9C18.5 10.245 18.2638 11.415 17.7912 12.51C17.3187 13.605 16.6775 14.5575 15.8675 15.3675C15.0575 16.1775 14.105 16.8187 13.01 17.2912C11.915 17.7638 10.745 18 9.5 18ZM9.5 16.2C10.295 16.2 11.045 16.0837 11.75 15.8513C12.455 15.6188 13.1 15.285 13.685 14.85C13.1 14.415 12.455 14.0812 11.75 13.8487C11.045 13.6162 10.295 13.5 9.5 13.5C8.705 13.5 7.955 13.6162 7.25 13.8487C6.545 14.0812 5.9 14.415 5.315 14.85C5.9 15.285 6.545 15.6188 7.25 15.8513C7.955 16.0837 8.705 16.2 9.5 16.2ZM9.5 8.1C9.89 8.1 10.2125 7.9725 10.4675 7.7175C10.7225 7.4625 10.85 7.14 10.85 6.75C10.85 6.36 10.7225 6.0375 10.4675 5.7825C10.2125 5.5275 9.89 5.4 9.5 5.4C9.11 5.4 8.7875 5.5275 8.5325 5.7825C8.2775 6.0375 8.15 6.36 8.15 6.75C8.15 7.14 8.2775 7.4625 8.5325 7.7175C8.7875 7.9725 9.11 8.1 9.5 8.1Z" fill="#6D6C6D"/>
</svg>
