<svg width="27" height="27" viewBox="0 0 27 27" fill="none" xmlns="http://www.w3.org/2000/svg">
<path fill-rule="evenodd" clip-rule="evenodd" d="M11.6157 12.2222C11.6157 11.1024 12.0469 10.0285 12.8144 9.23666C13.5819 8.44484 14.6229 8 15.7083 8C16.7938 8 17.8347 8.44484 18.6022 9.23666C19.3697 10.0285 19.8009 11.1024 19.8009 12.2222C19.8009 13.342 19.3697 14.416 18.6022 15.2078C17.8347 15.9996 16.7938 16.4444 15.7083 16.4444C14.6229 16.4444 13.5819 15.9996 12.8144 15.2078C12.0469 14.416 11.6157 13.342 11.6157 12.2222ZM11.6157 18.5556C10.259 18.5556 8.95775 19.1116 7.99837 20.1014C7.03898 21.0912 6.5 22.4336 6.5 23.8333C6.5 24.6732 6.82339 25.4786 7.39902 26.0725C7.97465 26.6664 8.75538 27 9.56944 27H21.8472C22.6613 27 23.442 26.6664 24.0176 26.0725C24.5933 25.4786 24.9167 24.6732 24.9167 23.8333C24.9167 22.4336 24.3777 21.0912 23.4183 20.1014C22.4589 19.1116 21.1577 18.5556 19.8009 18.5556H11.6157Z" fill="#6D6C6D"/>
<path d="M27 4.125C27 3.88639 27 3.46349 27 3.06249C27 2.51021 26.5526 2.0625 26.0003 2.0625C25.2048 2.0625 24.1709 2.0625 23.8333 2.0625H19.5V0H17.3333V2.0625H8.66667V0H6.5V2.0625H2.16667C1.59203 2.0625 1.04093 2.2798 0.634602 2.66659C0.228273 3.05339 0 3.57799 0 4.125V24.75C0 25.297 0.228273 25.8216 0.634602 26.2084C1.04093 26.5952 1.59203 26.8125 2.16667 26.8125H5.41667V24.75H2.16667V4.125H6.5V6.1875H8.66667V4.125H17.3333V6.1875H19.5V4.125H25V10.3125H27V4.125Z" fill="#6D6C6D"/>
</svg>
